<svg xmlns="http://www.w3.org/2000/svg" viewBox="0 0 40 40"><defs>
<linearGradient id="wt-logo-grad" x1="0%" y1="0%" x2="0%" y2="100%">
<stop offset="0%" stop-color="#e6edf3"/>
<stop offset="100%" stop-color="#a5afbe"/>
</linearGradient>
</defs>
<!--
  Tower silhouette (one path, clockwise from top-left of leftmost merlon):
    body x = 8 -> 32 (width 24)
    plinth x = 5 -> 35 (width 30, slightly wider foot)
    crenellated top: 5 merlons (teeth) of width 3, 4 embrasures (gaps) of width 2.25
    centre merlon midpoint = x=20  → satellite mast lines up exactly
-->
<path fill="url(#wt-logo-grad)" d="M 8 14 L 8 10 L 11 10 L 11 14 L 13.25 14 L 13.25 10 L 16.25 10 L 16.25 14 L 18.5 14 L 18.5 10 L 21.5 10 L 21.5 14 L 23.75 14 L 23.75 10 L 26.75 10 L 26.75 14 L 29 14 L 29 10 L 32 10 L 32 14 L 32 33 L 35 33 L 35 36 L 5 36 L 5 33 L 8 33 L 8 14 Z"/>
<!-- Antenna mast — rises from centre merlon (x=20) -->
<line x1="20" y1="10" x2="20" y2="5.2" stroke="url(#wt-logo-grad)" stroke-width="1.5" stroke-linecap="round"/>
<!-- Satellite head -->
<circle cx="20" cy="3.8" r="1.85" fill="url(#wt-logo-grad)"/>
<!-- Signal pings (animated, blue accent) -->
<g fill="none" stroke="#79b8ff" stroke-width="1.4" stroke-linecap="round">
<path class="wt-logo-ping" d="M 24.2 4.4 Q 26.7 4.4 26.7 6.9" opacity="0.8"/>
<path class="wt-logo-ping wt-logo-ping-2" d="M 26.8 2.1 Q 30.2 2.1 30.2 6.9" opacity="0.45"/>
</g></svg>